<svg xmlns="http://www.w3.org/2000/svg" xmlns:xlink="http://www.w3.org/1999/xlink" width="685.495" height="548.349" viewBox="0 0 685.495 548.349">
  <defs>
    <clipPath id="clip-path">
      <path id="Caminho_7142" data-name="Caminho 7142" d="M635.787,1055.488a22.622,22.622,0,1,1-22.621-22.623A22.625,22.625,0,0,1,635.787,1055.488Z" fill="#f69823"/>
    </clipPath>
    <clipPath id="clip-path-2">
      <path id="Caminho_7144" data-name="Caminho 7144" d="M869.728,755.861a21.241,21.241,0,1,1-21.24-21.244A21.241,21.241,0,0,1,869.728,755.861Z" fill="#23bed0"/>
    </clipPath>
  </defs>
  <g id="Grupo_6665" data-name="Grupo 6665" transform="translate(-184.233 -529.764)">
    <g id="Grupo_6580" data-name="Grupo 6580">
      <g id="Grupo_6577" data-name="Grupo 6577">
        <line id="Linha_251" data-name="Linha 251" x2="29.049" transform="translate(804.628 623.968)" fill="none" stroke="#000" stroke-miterlimit="10" stroke-width="3.6"/>
        <path id="Caminho_7083" data-name="Caminho 7083" d="M795.282,623.968h4.3" fill="none" stroke="#000" stroke-miterlimit="10" stroke-width="3.6"/>
      </g>
      <g id="Grupo_6578" data-name="Grupo 6578">
        <path id="Caminho_7084" data-name="Caminho 7084" d="M783.987,588.089a15.857,15.857,0,0,1,2.869.495" fill="none" stroke="#000" stroke-miterlimit="10" stroke-width="3.6"/>
        <path id="Caminho_7085" data-name="Caminho 7085" d="M766.347,605.9A16.691,16.691,0,0,1,780.3,588.205" fill="none" stroke="#000" stroke-miterlimit="10" stroke-width="3.6"/>
      </g>
      <g id="Grupo_6579" data-name="Grupo 6579">
        <path id="Caminho_7086" data-name="Caminho 7086" d="M762.315,610.638a21.032,21.032,0,1,1,39.725-13.775,13.731,13.731,0,0,1,23.758,13.5h7.676a9.383,9.383,0,0,1,0,18.767h-68.93a9.383,9.383,0,0,1-2.229-18.5Z" fill="none" stroke="#000" stroke-miterlimit="10" stroke-width="3.6"/>
      </g>
    </g>
    <g id="Grupo_6644" data-name="Grupo 6644">
      <g id="Grupo_6637" data-name="Grupo 6637">
        <path id="Caminho_7134" data-name="Caminho 7134" d="M801.2,654.56l-28.75-34.266-12.289-15.754L748.55,619.418,719.12,654.56" fill="#28bcce" stroke="#000" stroke-miterlimit="10" stroke-width="3.6"/>
        <path id="Caminho_7135" data-name="Caminho 7135" d="M752.614,618.351l.166,21.063,8.756-15.223,6.629,5.668,3.074-8.854.418.537-.119-.561L760.159,606.4,749.827,619.64Z" fill="#fff"/>
      </g>
      <g id="Grupo_6638" data-name="Grupo 6638">
        <path id="Caminho_7136" data-name="Caminho 7136" d="M754.4,657.14l-41.949-53.762L694.522,580.4,677.587,602.1,634.644,657.14" fill="#28bcce" stroke="#000" stroke-miterlimit="10" stroke-width="3.6"/>
        <path id="Caminho_7137" data-name="Caminho 7137" d="M683.515,600.544l.246,30.733,12.773-22.209,9.674,8.27,4.484-12.922.611.785-.18-.816-16.6-21.281-15.074,19.322Z" fill="#fff"/>
      </g>
      <g id="Grupo_6640" data-name="Grupo 6640">
        <g id="Grupo_6639" data-name="Grupo 6639">
          <path id="Caminho_7138" data-name="Caminho 7138" d="M715.663,545.882H711.02l-14.8-.1V559.3h19.445l-6.781-6.606Z" fill="#f69823"/>
        </g>
        <line id="Linha_261" data-name="Linha 261" y2="37.625" transform="translate(694.724 544.478)" fill="none" stroke="#000" stroke-miterlimit="10" stroke-width="3.6"/>
      </g>
      <g id="Grupo_6641" data-name="Grupo 6641">
        <line id="Linha_262" data-name="Linha 262" y1="19.832" x2="15.125" transform="translate(659.077 613.334)" fill="none" stroke="#000" stroke-miterlimit="10" stroke-width="3.6"/>
        <line id="Linha_263" data-name="Linha 263" y1="2.57" x2="1.959" transform="translate(675.882 608.56)" fill="none" stroke="#000" stroke-miterlimit="10" stroke-width="3.6"/>
      </g>
      <g id="Grupo_6642" data-name="Grupo 6642">
        <line id="Linha_264" data-name="Linha 264" x1="10.99" y1="13.746" transform="translate(778.003 633.562)" fill="none" stroke="#000" stroke-miterlimit="10" stroke-width="3.6"/>
        <line id="Linha_265" data-name="Linha 265" x1="1.422" y1="1.779" transform="translate(775.354 630.252)" fill="none" stroke="#000" stroke-miterlimit="10" stroke-width="3.6"/>
      </g>
      <g id="Grupo_6643" data-name="Grupo 6643">
        <line id="Linha_266" data-name="Linha 266" x1="8.635" transform="translate(695.056 548.228)" fill="none" stroke="#000" stroke-miterlimit="10" stroke-width="3.6"/>
        <path id="Caminho_7139" data-name="Caminho 7139" d="M706.468,548.228h-1.276" fill="none" stroke="#000" stroke-miterlimit="10" stroke-width="3.6"/>
      </g>
    </g>
    <g id="Grupo_6576" data-name="Grupo 6576">
      <g id="Grupo_6572" data-name="Grupo 6572">
        <path id="Caminho_7072" data-name="Caminho 7072" d="M655.137,814.086A165.517,165.517,0,1,1,421.06,580.009c64.6-64.6,169.423-64.6,234.049.026A165.514,165.514,0,0,1,655.137,814.086Z" fill="#26bdcf" stroke="#000" stroke-miterlimit="10" stroke-width="3.6"/>
        <path id="Caminho_7073" data-name="Caminho 7073" d="M636.547,795.5a139.237,139.237,0,1,1-.029-196.874A139.245,139.245,0,0,1,636.547,795.5Z" fill="#fff"/>
        <path id="Caminho_7074" data-name="Caminho 7074" d="M615.062,774.014a108.818,108.818,0,1,1-.068-153.864A108.821,108.821,0,0,1,615.062,774.014Z" fill="#f9a729" stroke="#000" stroke-miterlimit="10" stroke-width="3.6"/>
        <path id="Caminho_7075" data-name="Caminho 7075" d="M591.255,750.2a75.186,75.186,0,1,1-.01-106.3A75.16,75.16,0,0,1,591.255,750.2Z" fill="#fff"/>
        <path id="Caminho_7076" data-name="Caminho 7076" d="M564.632,723.584a37.508,37.508,0,1,1-.055-53.018A37.543,37.543,0,0,1,564.632,723.584Z" fill="#f59121"/>
        <g id="Grupo_6571" data-name="Grupo 6571">
          <g id="Grupo_6570" data-name="Grupo 6570">
            <path id="Caminho_7077" data-name="Caminho 7077" d="M659.582,694.283l14.084-21.172,53.471-.037-14.072,21.189Z" fill="#f9a729"/>
            <path id="Caminho_7078" data-name="Caminho 7078" d="M659.627,698.676,673.682,719.9l53.432-.037L713.066,698.7Z" fill="#f9a729"/>
          </g>
          <path id="Caminho_7079" data-name="Caminho 7079" d="M539.391,698.871c-2.768.018-5-1.078-5-2.449h0c0-1.367,2.228-2.459,5.008-2.453l182.964-.006c2.758.012,5.024,1.121,5.028,2.463h0c.017,1.361-2.233,2.463-5.024,2.459Z"/>
        </g>
      </g>
      <g id="Grupo_6575" data-name="Grupo 6575">
        <path id="Caminho_7080" data-name="Caminho 7080" d="M540.456,726.025a28.457,28.457,0,0,1-5.49.08" fill="none" stroke="#000" stroke-miterlimit="10" stroke-width="3.6"/>
        <path id="Caminho_7081" data-name="Caminho 7081" d="M529.662,725.193A29.445,29.445,0,1,1,544.9,668.309" fill="none" stroke="#000" stroke-miterlimit="10" stroke-width="3.6"/>
        <g id="Grupo_6574" data-name="Grupo 6574">
          <g id="Grupo_6573" data-name="Grupo 6573">
            <path id="Caminho_7082" data-name="Caminho 7082" d="M557.384,687.449a2.012,2.012,0,0,0,.122-2.765c-5.116-5.954-11.3-9.311-17.881-9.717s-13.13,2.154-18.9,7.4a2.016,2.016,0,1,0,2.712,2.984c4.951-4.5,10.464-6.7,15.943-6.363s10.675,3.219,15.074,8.33a2.008,2.008,0,0,0,2.839.205A.33.33,0,0,0,557.384,687.449Z" fill="#fff"/>
          </g>
        </g>
      </g>
    </g>
    <g id="Grupo_6584" data-name="Grupo 6584">
      <g id="Grupo_6582" data-name="Grupo 6582">
        <g id="Grupo_6581" data-name="Grupo 6581">
          <path id="Caminho_7087" data-name="Caminho 7087" d="M810.082,862.023H798.094l-38.213-.244v34.883h50.2l-17.5-17.055Z" fill="#f69823"/>
        </g>
        <line id="Linha_252" data-name="Linha 252" y2="97.131" transform="translate(756.025 858.398)" fill="none" stroke="#000" stroke-miterlimit="10" stroke-width="3.6"/>
      </g>
      <g id="Grupo_6583" data-name="Grupo 6583">
        <line id="Linha_253" data-name="Linha 253" x1="22.285" transform="translate(756.891 868.074)" fill="none" stroke="#000" stroke-miterlimit="10" stroke-width="3.6"/>
        <path id="Caminho_7088" data-name="Caminho 7088" d="M786.348,868.074h-3.3" fill="none" stroke="#000" stroke-miterlimit="10" stroke-width="3.6"/>
      </g>
    </g>
    <g id="Grupo_6585" data-name="Grupo 6585">
      <rect id="Retângulo_1622" data-name="Retângulo 1622" width="3.408" height="3.621" transform="translate(216.415 884.496)" fill="#231f20"/>
      <rect id="Retângulo_1623" data-name="Retângulo 1623" width="3.408" height="3.621" transform="translate(224.48 884.496)" fill="#231f20"/>
      <rect id="Retângulo_1624" data-name="Retângulo 1624" width="3.407" height="3.621" transform="translate(232.545 884.496)" fill="#231f20"/>
      <rect id="Retângulo_1625" data-name="Retângulo 1625" width="3.405" height="3.621" transform="translate(240.611 884.496)" fill="#231f20"/>
      <rect id="Retângulo_1626" data-name="Retângulo 1626" width="3.406" height="3.621" transform="translate(248.676 884.496)" fill="#231f20"/>
      <rect id="Retângulo_1627" data-name="Retângulo 1627" width="3.409" height="3.621" transform="translate(256.738 884.496)" fill="#231f20"/>
      <rect id="Retângulo_1628" data-name="Retângulo 1628" width="3.408" height="3.621" transform="translate(264.802 884.496)" fill="#231f20"/>
      <rect id="Retângulo_1629" data-name="Retângulo 1629" width="3.405" height="3.621" transform="translate(272.869 884.496)" fill="#231f20"/>
      <rect id="Retângulo_1630" data-name="Retângulo 1630" width="3.405" height="3.621" transform="translate(280.934 884.496)" fill="#231f20"/>
      <rect id="Retângulo_1631" data-name="Retângulo 1631" width="3.405" height="3.621" transform="translate(288.997 884.496)" fill="#231f20"/>
      <rect id="Retângulo_1632" data-name="Retângulo 1632" width="3.404" height="3.621" transform="translate(297.063 884.496)" fill="#231f20"/>
      <rect id="Retângulo_1633" data-name="Retângulo 1633" width="3.405" height="3.621" transform="translate(305.126 884.496)" fill="#231f20"/>
      <rect id="Retângulo_1634" data-name="Retângulo 1634" width="3.413" height="3.621" transform="translate(313.186 884.496)" fill="#231f20"/>
    </g>
    <g id="Grupo_6586" data-name="Grupo 6586">
      <rect id="Retângulo_1635" data-name="Retângulo 1635" width="3.406" height="3.619" transform="translate(713.764 740.479)" fill="#231f20"/>
      <rect id="Retângulo_1636" data-name="Retângulo 1636" width="3.408" height="3.619" transform="translate(721.826 740.479)" fill="#231f20"/>
      <rect id="Retângulo_1637" data-name="Retângulo 1637" width="3.408" height="3.619" transform="translate(729.893 740.479)" fill="#231f20"/>
      <rect id="Retângulo_1638" data-name="Retângulo 1638" width="3.404" height="3.619" transform="translate(737.959 740.479)" fill="#231f20"/>
      <rect id="Retângulo_1639" data-name="Retângulo 1639" width="3.406" height="3.619" transform="translate(746.023 740.479)" fill="#231f20"/>
      <rect id="Retângulo_1640" data-name="Retângulo 1640" width="3.408" height="3.619" transform="translate(754.086 740.479)" fill="#231f20"/>
      <rect id="Retângulo_1641" data-name="Retângulo 1641" width="3.408" height="3.619" transform="translate(762.148 740.479)" fill="#231f20"/>
      <rect id="Retângulo_1642" data-name="Retângulo 1642" width="3.404" height="3.619" transform="translate(770.217 740.479)" fill="#231f20"/>
      <rect id="Retângulo_1643" data-name="Retângulo 1643" width="3.404" height="3.619" transform="translate(778.281 740.479)" fill="#231f20"/>
      <rect id="Retângulo_1644" data-name="Retângulo 1644" width="3.406" height="3.619" transform="translate(786.344 740.479)" fill="#231f20"/>
      <rect id="Retângulo_1645" data-name="Retângulo 1645" width="3.406" height="3.619" transform="translate(794.408 740.479)" fill="#231f20"/>
      <rect id="Retângulo_1646" data-name="Retângulo 1646" width="3.404" height="3.619" transform="translate(802.473 740.479)" fill="#231f20"/>
      <rect id="Retângulo_1647" data-name="Retângulo 1647" width="3.412" height="3.619" transform="translate(810.533 740.479)" fill="#231f20"/>
    </g>
    <g id="Grupo_6587" data-name="Grupo 6587">
      <rect id="Retângulo_1648" data-name="Retângulo 1648" width="3.407" height="3.621" transform="translate(290.522 1023.516)" fill="#231f20"/>
      <rect id="Retângulo_1649" data-name="Retângulo 1649" width="3.407" height="3.621" transform="translate(298.586 1023.516)" fill="#231f20"/>
      <rect id="Retângulo_1650" data-name="Retângulo 1650" width="3.408" height="3.621" transform="translate(306.65 1023.516)" fill="#231f20"/>
      <rect id="Retângulo_1651" data-name="Retângulo 1651" width="3.405" height="3.621" transform="translate(314.718 1023.516)" fill="#231f20"/>
      <rect id="Retângulo_1652" data-name="Retângulo 1652" width="3.406" height="3.621" transform="translate(322.782 1023.516)" fill="#231f20"/>
      <rect id="Retângulo_1653" data-name="Retângulo 1653" width="3.409" height="3.621" transform="translate(330.844 1023.516)" fill="#231f20"/>
      <rect id="Retângulo_1654" data-name="Retângulo 1654" width="3.408" height="3.621" transform="translate(338.908 1023.516)" fill="#231f20"/>
      <rect id="Retângulo_1655" data-name="Retângulo 1655" width="3.404" height="3.621" transform="translate(346.976 1023.516)" fill="#231f20"/>
      <rect id="Retângulo_1656" data-name="Retângulo 1656" width="3.405" height="3.621" transform="translate(355.039 1023.516)" fill="#231f20"/>
      <rect id="Retângulo_1657" data-name="Retângulo 1657" width="3.405" height="3.621" transform="translate(363.101 1023.516)" fill="#231f20"/>
      <rect id="Retângulo_1658" data-name="Retângulo 1658" width="3.405" height="3.621" transform="translate(371.167 1023.516)" fill="#231f20"/>
      <rect id="Retângulo_1659" data-name="Retângulo 1659" width="3.405" height="3.621" transform="translate(379.23 1023.516)" fill="#231f20"/>
      <rect id="Retângulo_1660" data-name="Retângulo 1660" width="3.413" height="3.621" transform="translate(387.29 1023.516)" fill="#231f20"/>
    </g>
    <g id="Grupo_6588" data-name="Grupo 6588">
      <path id="Caminho_7089" data-name="Caminho 7089" d="M281.19,934.746a5.386,5.386,0,0,1-.047.793,1.758,1.758,0,0,1-.152.516.742.742,0,0,1-.235.279.567.567,0,0,1-.29.086h-5.251v5.725a.514.514,0,0,1-.088.3.659.659,0,0,1-.287.215,1.74,1.74,0,0,1-.543.147,7.108,7.108,0,0,1-1.684,0,1.7,1.7,0,0,1-.539-.147.743.743,0,0,1-.3-.215.507.507,0,0,1-.089-.3V936.42h-5.241a.512.512,0,0,1-.274-.086.766.766,0,0,1-.233-.279,1.872,1.872,0,0,1-.157-.516,4.236,4.236,0,0,1-.061-.793,5.392,5.392,0,0,1,.052-.789,1.958,1.958,0,0,1,.142-.522.711.711,0,0,1,.216-.279.427.427,0,0,1,.265-.086h5.291v-5.709a.583.583,0,0,1,.089-.312.662.662,0,0,1,.3-.236,1.991,1.991,0,0,1,.539-.145,7.257,7.257,0,0,1,1.684,0,2.036,2.036,0,0,1,.543.145.581.581,0,0,1,.375.548v5.709h5.3a.48.48,0,0,1,.263.086.671.671,0,0,1,.218.279,1.815,1.815,0,0,1,.144.522A5.465,5.465,0,0,1,281.19,934.746Z"/>
    </g>
    <g id="Grupo_6590" data-name="Grupo 6590">
      <path id="Caminho_7091" data-name="Caminho 7091" d="M642.041,967.256a5.39,5.39,0,0,1-.047.793,1.776,1.776,0,0,1-.152.516.758.758,0,0,1-.235.279.571.571,0,0,1-.291.086h-5.25v5.724a.523.523,0,0,1-.088.3.656.656,0,0,1-.289.215,1.747,1.747,0,0,1-.541.147,7.108,7.108,0,0,1-1.683,0,1.738,1.738,0,0,1-.541-.147.756.756,0,0,1-.3-.215.509.509,0,0,1-.09-.3V968.93h-5.24a.516.516,0,0,1-.275-.086.781.781,0,0,1-.231-.279,1.826,1.826,0,0,1-.158-.516,4.323,4.323,0,0,1-.061-.793,5.7,5.7,0,0,1,.051-.789,1.908,1.908,0,0,1,.143-.522.7.7,0,0,1,.215-.279.427.427,0,0,1,.265-.086h5.291v-5.709a.588.588,0,0,1,.09-.314.683.683,0,0,1,.3-.235,2.04,2.04,0,0,1,.541-.144,7.257,7.257,0,0,1,1.683,0,2.052,2.052,0,0,1,.541.144.577.577,0,0,1,.377.549v5.709h5.3a.483.483,0,0,1,.264.086.69.69,0,0,1,.219.279,1.877,1.877,0,0,1,.142.522A5.469,5.469,0,0,1,642.041,967.256Z"/>
    </g>
    <g id="Grupo_6591" data-name="Grupo 6591">
      <rect id="Retângulo_1661" data-name="Retângulo 1661" width="174.858" height="1.545" transform="translate(391.99 1057.596)"/>
      <rect id="Retângulo_1662" data-name="Retângulo 1662" width="115.043" height="1.543" transform="translate(451.805 1062.541)"/>
    </g>
    <g id="Grupo_6592" data-name="Grupo 6592">
      <rect id="Retângulo_1663" data-name="Retângulo 1663" width="52.325" height="1.545" transform="translate(184.233 1012.521)"/>
      <rect id="Retângulo_1664" data-name="Retângulo 1664" width="34.426" height="1.545" transform="translate(184.233 1007.578)"/>
    </g>
    <g id="Grupo_6593" data-name="Grupo 6593">
      <rect id="Retângulo_1665" data-name="Retângulo 1665" width="91.441" height="1.545" transform="translate(635.135 1013.404)"/>
      <rect id="Retângulo_1666" data-name="Retângulo 1666" width="60.162" height="1.545" transform="translate(635.135 1008.461)"/>
    </g>
    <g id="Grupo_6595" data-name="Grupo 6595">
      <path id="Caminho_7092" data-name="Caminho 7092" d="M272.531,754.914c-8.1.58-15.717,1.233-23.329-1.392a13.881,13.881,0,0,0-3.17-1.969c-8.252-5.256-10.154-16.426-6.346-24.965,2.537-6.572,8.88-11.166,15.228-11.166,31.09-1.317,61.547-.658,92.392-.477" fill="none" stroke="#000" stroke-miterlimit="10" stroke-width="3.6"/>
      <path id="Caminho_7093" data-name="Caminho 7093" d="M297.917,683.438c16.462.31,32.926.013,49.389-.083" fill="none" stroke="#000" stroke-miterlimit="10" stroke-width="3.6"/>
      <g id="Grupo_6594" data-name="Grupo 6594">
        <rect id="Retângulo_1667" data-name="Retângulo 1667" width="26.192" height="0.996" transform="translate(321.113 697.979)"/>
        <rect id="Retângulo_1668" data-name="Retângulo 1668" width="26.189" height="0.996" transform="translate(287.556 697.979)"/>
        <rect id="Retângulo_1669" data-name="Retângulo 1669" width="2.456" height="0.996" transform="translate(280.19 697.979)"/>
      </g>
    </g>
    <g id="Grupo_6603" data-name="Grupo 6603">
      <g id="Grupo_6599" data-name="Grupo 6599">
        <g id="Grupo_6596" data-name="Grupo 6596">
          <line id="Linha_254" data-name="Linha 254" x1="22.149" transform="translate(262.628 623.014)" fill="none" stroke="#000" stroke-miterlimit="10" stroke-width="3.6"/>
          <path id="Caminho_7094" data-name="Caminho 7094" d="M291.906,623.014h-3.278" fill="none" stroke="#000" stroke-miterlimit="10" stroke-width="3.6"/>
        </g>
        <g id="Grupo_6597" data-name="Grupo 6597">
          <path id="Caminho_7095" data-name="Caminho 7095" d="M300.518,595.652a12.238,12.238,0,0,0-2.189.375" fill="none" stroke="#000" stroke-miterlimit="10" stroke-width="3.6"/>
          <path id="Caminho_7096" data-name="Caminho 7096" d="M313.967,609.232a12.723,12.723,0,0,0-10.638-13.488" fill="none" stroke="#000" stroke-miterlimit="10" stroke-width="3.6"/>
        </g>
        <g id="Grupo_6598" data-name="Grupo 6598">
          <path id="Caminho_7097" data-name="Caminho 7097" d="M317.041,612.846a16.036,16.036,0,1,0-30.288-10.5,10.469,10.469,0,0,0-18.113,10.3h-5.855a7.153,7.153,0,1,0,0,14.306h52.557a7.154,7.154,0,0,0,1.7-14.1Z" fill="none" stroke="#000" stroke-miterlimit="10" stroke-width="3.6"/>
        </g>
      </g>
      <g id="Grupo_6602" data-name="Grupo 6602">
        <path id="Caminho_7098" data-name="Caminho 7098" d="M245.081,636.307a19.128,19.128,0,1,1,36.128-12.528,12.489,12.489,0,0,1,21.61,12.28H309.8a8.535,8.535,0,1,1,0,17.07H247.113a8.534,8.534,0,0,1-2.032-16.822Z" fill="#23bed0"/>
        <g id="Grupo_6601" data-name="Grupo 6601">
          <g id="Grupo_6600" data-name="Grupo 6600">
            <path id="Caminho_7099" data-name="Caminho 7099" d="M247.257,631.2a1.474,1.474,0,0,1-1.074-1.72c1.127-5.653,3.866-10.032,7.918-12.659,4.075-2.638,9.176-3.359,14.755-2.088a1.48,1.48,0,0,1-.656,2.887c-4.788-1.09-9.1-.508-12.485,1.684s-5.661,5.906-6.629,10.754a1.478,1.478,0,0,1-1.739,1.16A.48.48,0,0,1,247.257,631.2Z" fill="#fff"/>
          </g>
        </g>
      </g>
    </g>
    <g id="Grupo_6608" data-name="Grupo 6608">
      <g id="Grupo_6604" data-name="Grupo 6604">
        <path id="Caminho_7101" data-name="Caminho 7101" d="M710.912,836.693l-7.129,4.955a.837.837,0,0,0-.582.352,1.087,1.087,0,0,0,0,1.088.835.835,0,0,0,.582.35l7.129,4.955a.849.849,0,0,0,.973-1.391l-6.412-4.459,6.412-4.453a.851.851,0,0,0-.973-1.4Z"/>
      </g>
      <g id="Grupo_6605" data-name="Grupo 6605">
        <path id="Caminho_7102" data-name="Caminho 7102" d="M718.543,836.693l-7.133,4.955a.848.848,0,0,0-.58.352.905.905,0,0,0,.58,1.438l7.133,4.955A.847.847,0,1,0,719.51,847l-6.41-4.459,6.41-4.453a.85.85,0,0,0-.967-1.4Z"/>
      </g>
      <g id="Grupo_6606" data-name="Grupo 6606">
        <path id="Caminho_7103" data-name="Caminho 7103" d="M726.164,836.367l-7.127,4.955a.863.863,0,0,0-.582.352,1.087,1.087,0,0,0,0,1.088.845.845,0,0,0,.582.349l7.127,4.957a.851.851,0,0,0,.973-1.4l-6.412-4.453,6.412-4.455a.851.851,0,0,0-.973-1.4Z"/>
      </g>
      <g id="Grupo_6607" data-name="Grupo 6607">
        <path id="Caminho_7104" data-name="Caminho 7104" d="M733.8,836.367l-7.131,4.955a.837.837,0,0,0-.58.352.9.9,0,0,0,.58,1.437l7.131,4.957a.849.849,0,1,0,.967-1.4l-6.411-4.453,6.411-4.455a.849.849,0,1,0-.967-1.4Z"/>
      </g>
    </g>
    <g id="Grupo_6615" data-name="Grupo 6615">
      <rect id="Retângulo_1673" data-name="Retângulo 1673" width="38.559" height="1.383" transform="translate(787.178 955.732)"/>
      <rect id="Retângulo_1674" data-name="Retângulo 1674" width="38.561" height="1.383" transform="translate(737.771 955.732)"/>
      <rect id="Retângulo_1675" data-name="Retângulo 1675" width="3.615" height="1.383" transform="translate(726.93 955.732)"/>
    </g>
    <g id="Grupo_6619" data-name="Grupo 6619">
      <path id="Caminho_7109" data-name="Caminho 7109" d="M366.787,905.574c3.054-8.217,7.606-50.154,15.4-59.877,3.417-4.265,55.07-54.027,55.94-57.806s5.313,0,37.942,9.861c0,0,16.524,19.027,19.73,20.486s32.741,73.91,37.533,87.336" fill="#fff" stroke="#000" stroke-miterlimit="10" stroke-width="3.6"/>
      <line id="Linha_255" data-name="Linha 255" y2="40.303" transform="translate(432.808 871.348)" fill="#fff" stroke="#000" stroke-miterlimit="10" stroke-width="3.6"/>
      <g id="Grupo_6616" data-name="Grupo 6616">
        <path id="Caminho_7110" data-name="Caminho 7110" d="M428.975,763.082l-3.553,11.09A15.714,15.714,0,0,0,428.975,763.082Z" fill="#fff"/>
        <path id="Caminho_7111" data-name="Caminho 7111" d="M503.951,686.215s13.622-21.879-11.859-21.879c0,0-43.664-1.129-46.682,1.689-13.051-1.261-31.638,9.485-35.414,40.332-2.269,18.592,18.281,40.086,18.979,56.725l42.877-54.7Z" fill="#fff"/>
        <path id="Caminho_7112" data-name="Caminho 7112" d="M462.352,658.859c-8.172,1.1-13.924,4.348-16.942,7.166-13.051-1.261-31.638,9.485-35.414,40.332-2.818,23.077,29.554,50.635,15.426,67.815" fill="#fff" stroke="#000" stroke-miterlimit="10" stroke-width="3.6"/>
        <path id="Caminho_7113" data-name="Caminho 7113" d="M451.428,664.336h40.664c25.481,0,11.859,21.879,11.859,21.879" fill="#fff" stroke="#000" stroke-miterlimit="10" stroke-width="3.6"/>
      </g>
      <path id="Caminho_7114" data-name="Caminho 7114" d="M481.78,778.256l-12.273.273c11.733,1.786,33.037-5.066,34.816-16.8l-.372-75.515a19.092,19.092,0,0,0-18.767-1.672s-38.275,31.889-38.874,31.645c-5.169-5.221-12.625-1.485-12.625,7.931,0,10.756,8.5,10.328,4.618,19-3.321,7.418-5.643,15.809-5.891,16.1l8.374,27.257c13.935,4.319,14.522,4.711,35.281,11.272C476.067,797.752,477.55,778.31,481.78,778.256Z" fill="#fff" stroke="#000" stroke-miterlimit="10" stroke-width="3.6"/>
      <g id="Grupo_6617" data-name="Grupo 6617">
        <path id="Caminho_7115" data-name="Caminho 7115" d="M445.269,707.467c8.729-7.057,17.368-14.221,26-21.387" fill="#fff" stroke="#000" stroke-miterlimit="10" stroke-width="3.6"/>
        <path id="Caminho_7116" data-name="Caminho 7116" d="M472.857,684.627q2.183-1.758,4.355-3.531" fill="#fff" stroke="#000" stroke-miterlimit="10" stroke-width="3.6"/>
      </g>
      <g id="Grupo_6618" data-name="Grupo 6618">
        <line id="Linha_256" data-name="Linha 256" x2="25.716" y2="63.268" transform="translate(488.391 842.609)" fill="#fff" stroke="#000" stroke-miterlimit="10" stroke-width="3.6"/>
        <path id="Caminho_7117" data-name="Caminho 7117" d="M480.115,822.248c1.269,3.115,2.538,6.24,3.8,9.352" fill="#fff" stroke="#000" stroke-miterlimit="10" stroke-width="3.6"/>
      </g>
    </g>
    <g id="Grupo_6625" data-name="Grupo 6625">
      <path id="Caminho_7118" data-name="Caminho 7118" d="M371.948,736.943c11.015-10.658,41.175-18.943,50.187-17.713,6.253.856,9.6,16.606,39.115,28.784,8.68,3.584.371,16.605.371,16.605L447.6,837.685l-23.249-4.429-11.438,28.785L396.3,855.4l-54.617,60.521s-7.013-34.318-15.5-56.094c-5.31-13.619,3.321-22.139,3.321-22.139s9.673-21.4,22.148-26.074c21.028-7.877,1.47-45.15,1.47-45.15S359.942,748.568,371.948,736.943Z" fill="#fff"/>
      <g id="Grupo_6624" data-name="Grupo 6624">
        <path id="Caminho_7119" data-name="Caminho 7119" d="M342.058,953.19l4.058-38.008,50.317-62.006L422.505,866.1s12.33,17.263,19.189,36.535c8.467,23.793,11.808,50.557,11.808,50.557Z" fill="#fff"/>
        <g id="Grupo_6623" data-name="Grupo 6623">
          <g id="Grupo_6621" data-name="Grupo 6621">
            <path id="Caminho_7120" data-name="Caminho 7120" d="M377.513,923.887v31" fill="#557f00" stroke="#000" stroke-miterlimit="10" stroke-width="3.6"/>
            <g id="Grupo_6620" data-name="Grupo 6620">
              <path id="Caminho_7121" data-name="Caminho 7121" d="M425.8,898.92c5.885,14.48,11.773,41.482,17.659,55.963" fill="#557f00" stroke="#000" stroke-miterlimit="10" stroke-width="3.6"/>
              <path id="Caminho_7122" data-name="Caminho 7122" d="M418.607,881.236q1.65,4.057,3.3,8.125" fill="#557f00" stroke="#000" stroke-miterlimit="10" stroke-width="3.6"/>
            </g>
          </g>
          <path id="Caminho_7123" data-name="Caminho 7123" d="M415.938,861.281c3.286-11.136,1.612-5.234,9-25.843" fill="#557f00" stroke="#000" stroke-miterlimit="10" stroke-width="3.6"/>
          <path id="Caminho_7124" data-name="Caminho 7124" d="M458.9,769.9c17.252-23.8-17.541-30.549-26.6-42.3-22.056-28.594-90.617,22.5-78.1,49.435,19.632,42.239-20.628,38.371-27.958,67.819-5.345,21.459,14.714,43.453,10.11,63.056" fill="none" stroke="#000" stroke-miterlimit="10" stroke-width="3.6"/>
          <g id="Grupo_6622" data-name="Grupo 6622">
            <path id="Caminho_7125" data-name="Caminho 7125" d="M389.143,794.012a84.6,84.6,0,0,0,32.771-19.492" fill="#557f00" stroke="#000" stroke-miterlimit="10" stroke-width="3.6"/>
            <path id="Caminho_7126" data-name="Caminho 7126" d="M423.437,772.861q2.076-2.076,3.938-4.259" fill="#557f00" stroke="#000" stroke-miterlimit="10" stroke-width="3.6"/>
          </g>
        </g>
        <path id="Caminho_7127" data-name="Caminho 7127" d="M397.411,854.291c18.254,3.293,28.825,15.662,35.7,26.9,10.829,17.7,20.466,67.37,21.5,73.693" fill="none" stroke="#000" stroke-miterlimit="10" stroke-width="3.6"/>
        <path id="Caminho_7128" data-name="Caminho 7128" d="M415.137,828.084c7.238,7.236,21.245,11.438,29.745,9.68,7.84-.694,12.664-47.037,10.856-54.274,0-9.045,1.378-10.027,1.378-17.76l-7.737-12.494c-3.161,30.268-45.585,40.256-59.759,58.711-1.134,12.668,1.278,29.1,6.813,41.229l-51.85,62.431c-2.248,12.432-3.117,30.256-2.944,39.276" fill="none" stroke="#000" stroke-miterlimit="10" stroke-width="3.6"/>
      </g>
    </g>
    <g id="Grupo_6636" data-name="Grupo 6636">
      <g id="Grupo_6628" data-name="Grupo 6628">
        <rect id="Retângulo_1676" data-name="Retângulo 1676" width="94.135" height="29.584" transform="translate(401.074 871.146) rotate(-22.292)" fill="#fff" stroke="#000" stroke-width="3.6"/>
        <g id="Grupo_6627" data-name="Grupo 6627">
          <rect id="Retângulo_1677" data-name="Retângulo 1677" width="162.594" height="47.068" transform="translate(455.163 839.524) rotate(-22.293)" fill="#fff" stroke="#000" stroke-width="3.6"/>
          <g id="Grupo_6626" data-name="Grupo 6626">
            <line id="Linha_257" data-name="Linha 257" x1="60.298" y2="24.723" transform="translate(523.475 826.102)" fill="none" stroke="#000" stroke-miterlimit="10" stroke-width="3.6"/>
            <path id="Caminho_7129" data-name="Caminho 7129" d="M603.176,818.15q-4.458,1.822-8.914,3.653" fill="none" stroke="#000" stroke-miterlimit="10" stroke-width="3.6"/>
          </g>
        </g>
        <rect id="Retângulo_1678" data-name="Retângulo 1678" width="14.976" height="64.181" transform="translate(598.402 771.548) rotate(-22.291)" fill="#fff" stroke="#000" stroke-width="3.6"/>
      </g>
      <g id="Grupo_6635" data-name="Grupo 6635">
        <g id="Grupo_6629" data-name="Grupo 6629">
          <line id="Linha_258" data-name="Linha 258" y2="124.508" transform="translate(485.229 881.559)" fill="#fff" stroke="#000" stroke-miterlimit="10" stroke-width="3.6"/>
          <line id="Linha_259" data-name="Linha 259" x2="49.802" y2="124.508" transform="translate(485.987 881.559)" fill="#fff" stroke="#000" stroke-miterlimit="10" stroke-width="3.6"/>
          <line id="Linha_260" data-name="Linha 260" x1="49.804" y2="124.508" transform="translate(434.665 881.559)" fill="#fff" stroke="#000" stroke-miterlimit="10" stroke-width="3.6"/>
        </g>
        <g id="Grupo_6634" data-name="Grupo 6634">
          <path id="Caminho_7130" data-name="Caminho 7130" d="M464.539,885.242A21.582,21.582,0,1,0,479.078,858.4,21.583,21.583,0,0,0,464.539,885.242Z" fill="#fff" stroke="#000" stroke-width="3.6"/>
          <path id="Caminho_7131" data-name="Caminho 7131" d="M488.772,864.262a15.247,15.247,0,0,0-7.089,29.658" fill="none" stroke="#000" stroke-miterlimit="10" stroke-width="3.6"/>
          <g id="Grupo_6633" data-name="Grupo 6633">
            <g id="Grupo_6630" data-name="Grupo 6630">
              <path id="Caminho_7132" data-name="Caminho 7132" d="M482.458,868.727a11.059,11.059,0,1,1-7.219,13.867A11.053,11.053,0,0,1,482.458,868.727Z" fill="#23bed0"/>
            </g>
            <g id="Grupo_6632" data-name="Grupo 6632">
              <g id="Grupo_6631" data-name="Grupo 6631">
                <path id="Caminho_7133" data-name="Caminho 7133" d="M491.105,886.883a.881.881,0,0,1-.529,1.088,10.518,10.518,0,0,1-14.623-6.77.881.881,0,0,1,1.662-.584,8.785,8.785,0,0,0,12.336,5.707.871.871,0,0,1,1.134.512A.265.265,0,0,1,491.105,886.883Z" fill="#fff"/>
              </g>
            </g>
          </g>
        </g>
      </g>
    </g>
    <g id="Grupo_6649" data-name="Grupo 6649">
      <g id="Grupo_6648" data-name="Grupo 6648">
        <path id="Caminho_7140" data-name="Caminho 7140" d="M635.787,1055.488a22.622,22.622,0,1,1-22.621-22.623A22.625,22.625,0,0,1,635.787,1055.488Z" fill="#f69823"/>
        <g id="Grupo_6647" data-name="Grupo 6647" clip-path="url(#clip-path)">
          <g id="Grupo_6646" data-name="Grupo 6646">
            <path id="Caminho_7141" data-name="Caminho 7141" d="M621.584,1051.264a8.417,8.417,0,1,1-8.418-8.416A8.418,8.418,0,0,1,621.584,1051.264Z" fill="#fff" stroke="#000" stroke-miterlimit="10" stroke-width="3.6"/>
            <path id="Retângulo_1679" data-name="Retângulo 1679" d="M7.717,0H21.742a7.716,7.716,0,0,1,7.716,7.716V30.69A7.713,7.713,0,0,1,21.746,38.4H7.713A7.713,7.713,0,0,1,0,30.69V7.717A7.717,7.717,0,0,1,7.717,0Z" transform="translate(598.436 1059.629)" fill="#fff" stroke="#000" stroke-miterlimit="10" stroke-width="3.6"/>
            <g id="Grupo_6645" data-name="Grupo 6645">
              <line id="Linha_267" data-name="Linha 267" y2="26.568" transform="translate(605.275 1067.256)" fill="#23bed0" stroke="#000" stroke-miterlimit="10" stroke-width="3.6"/>
              <line id="Linha_268" data-name="Linha 268" y2="26.568" transform="translate(621.059 1067.256)" fill="#23bed0" stroke="#000" stroke-miterlimit="10" stroke-width="3.6"/>
            </g>
          </g>
        </g>
      </g>
    </g>
    <g id="Grupo_6654" data-name="Grupo 6654">
      <g id="Grupo_6653" data-name="Grupo 6653">
        <path id="Caminho_7143" data-name="Caminho 7143" d="M869.728,755.861a21.241,21.241,0,1,1-21.24-21.244A21.241,21.241,0,0,1,869.728,755.861Z" fill="#23bed0"/>
        <g id="Grupo_6652" data-name="Grupo 6652" clip-path="url(#clip-path-2)">
          <g id="Grupo_6651" data-name="Grupo 6651">
            <circle id="Elipse_514" data-name="Elipse 514" cx="7.904" cy="7.904" r="7.904" transform="translate(840.584 743.988)" fill="#fff" stroke="#000" stroke-miterlimit="10" stroke-width="3.6"/>
            <path id="Retângulo_1680" data-name="Retângulo 1680" d="M7.246,0H20.418a7.246,7.246,0,0,1,7.246,7.246v21.57a7.244,7.244,0,0,1-7.244,7.244H7.248A7.248,7.248,0,0,1,0,28.813V7.246A7.246,7.246,0,0,1,7.246,0Z" transform="translate(834.656 759.746)" fill="#fff" stroke="#000" stroke-miterlimit="10" stroke-width="3.6"/>
            <g id="Grupo_6650" data-name="Grupo 6650">
              <line id="Linha_269" data-name="Linha 269" y2="24.947" transform="translate(841.076 766.908)" fill="#23bed0" stroke="#000" stroke-miterlimit="10" stroke-width="3.6"/>
              <line id="Linha_270" data-name="Linha 270" y2="24.947" transform="translate(855.9 766.908)" fill="#23bed0" stroke="#000" stroke-miterlimit="10" stroke-width="3.6"/>
            </g>
          </g>
        </g>
      </g>
    </g>
    <g id="Grupo_6664" data-name="Grupo 6664">
      <g id="Grupo_6655" data-name="Grupo 6655">
        <path id="Caminho_7145" data-name="Caminho 7145" d="M225.967,795.445c.275,2.506,1.513,8.608,2.785,14.121,3.018,6.325,10.47,11.645,16.335,11.645h4.494c5.867,0,13.315-5.32,16.333-11.645,1.275-5.513,2.51-11.615,2.789-14.121Z" fill="none"/>
      </g>
      <g id="Grupo_6663" data-name="Grupo 6663">
        <g id="Grupo_6656" data-name="Grupo 6656">
          <rect id="Retângulo_1681" data-name="Retângulo 1681" width="2.431" height="19.971" transform="translate(246.119 823.125)"/>
        </g>
        <g id="Grupo_6657" data-name="Grupo 6657">
          <path id="Caminho_7146" data-name="Caminho 7146" d="M255.147,844.31H239.518a1.215,1.215,0,1,1,0-2.431h15.6a1.229,1.229,0,0,1,1.228,1.217A1.2,1.2,0,0,1,255.147,844.31Z"/>
        </g>
        <g id="Grupo_6658" data-name="Grupo 6658">
          <rect id="Retângulo_1682" data-name="Retângulo 1682" width="36.027" height="10.199" transform="translate(229.321 844.227)" fill="#f59121"/>
        </g>
        <g id="Grupo_6662" data-name="Grupo 6662">
          <g id="Grupo_6659" data-name="Grupo 6659">
            <path id="Caminho_7147" data-name="Caminho 7147" d="M262.5,818l-1.267-2.072a64.8,64.8,0,0,0,8.453-6.578,30.318,30.318,0,0,0,7.261-13.9h-7.206v-2.431h10.141l-.255,1.427a32.884,32.884,0,0,1-8.164,16.567A65.426,65.426,0,0,1,262.5,818Z"/>
          </g>
          <g id="Grupo_6660" data-name="Grupo 6660">
            <path id="Caminho_7148" data-name="Caminho 7148" d="M232.163,818A65.135,65.135,0,0,1,223.2,811a32.856,32.856,0,0,1-8.164-16.563l-.253-1.427h10.139v2.431h-7.205a30.3,30.3,0,0,0,7.259,13.9,64.648,64.648,0,0,0,8.454,6.58Z"/>
          </g>
          <g id="Grupo_6661" data-name="Grupo 6661">
            <path id="Caminho_7149" data-name="Caminho 7149" d="M249.581,823.645h-4.494c-6.856,0-15.2-5.9-18.59-13.161l-.081-.24c-.762-3.285-3.218-14.154-2.9-16.2l.162-1.029h47.308l.16,1.029c.32,2.047-2.136,12.916-2.9,16.2l-.084.24C264.776,817.742,256.435,823.645,249.581,823.645Zm-20.829-14.079c3.018,6.325,10.47,11.645,16.335,11.645h4.494c5.867,0,13.315-5.32,16.333-11.645,1.275-5.513,2.51-11.615,2.789-14.121H225.967C226.242,797.951,227.48,804.053,228.752,809.566Z"/>
          </g>
        </g>
      </g>
    </g>
  </g>
</svg>
